<svg width="76" height="76" viewBox="0 0 76 76" fill="none" xmlns="http://www.w3.org/2000/svg">
<rect width="76" height="76" rx="38" fill="white"/>
<path fill-rule="evenodd" clip-rule="evenodd" d="M49.4005 30.4C49.4005 36.696 44.2965 41.8 38.0005 41.8C31.7044 41.8 26.6005 36.696 26.6005 30.4C26.6005 24.104 31.7044 19 38.0005 19C44.2965 19 49.4005 24.104 49.4005 30.4ZM45.6005 30.4C45.6005 34.5974 42.1978 38 38.0005 38C33.8031 38 30.4005 34.5974 30.4005 30.4C30.4005 26.2026 33.8031 22.8 38.0005 22.8C42.1978 22.8 45.6005 26.2026 45.6005 30.4Z" fill="#00A8E9"/>
<path d="M38.0005 47.5C25.6991 47.5 15.2181 54.774 11.2256 64.9649C12.1982 65.9307 13.2227 66.8442 14.2947 67.7009C17.2677 58.3446 26.5942 51.3 38.0005 51.3C49.4067 51.3 58.7332 58.3446 61.7062 67.7009C62.7782 66.8442 63.8028 65.9307 64.7754 64.9649C60.7829 54.774 50.3018 47.5 38.0005 47.5Z" fill="#00A8E9"/>
</svg>
